<svg xmlns="http://www.w3.org/2000/svg" width="512" height="512" viewBox="0 0 512 512">
  <!-- Fondo verde oscuro con bordes redondeados -->
  <rect width="512" height="512" rx="115" fill="#2e3a2c"/>
  
  <!-- Carrito de compra escalado y centrado (color verde claro) -->
  <g transform="translate(256, 256) scale(8.5)">
    <path fill="#dcfec2" fill-rule="evenodd" d="m18.243-8.39l-1.183-.017c-1.586-3.963-3.464-7.44-4.637-9.472c-.964-1.67-2.742-2.621-4.61-2.621h-1.477c-.41-1.247-1.624-1.921-2.767-1.955c-.79-.023-1.963-.045-3.569-.045s-2.778.022-3.569.045c-1.143.034-2.357.708-2.767 1.955h-1.478c-1.867 0-3.645.95-4.61 2.621c-1.172 2.033-3.05 5.51-4.636 9.472l-1.183.018c-1.344.02-3.483.563-4.046 2.697C-22.42-5.2-22.5-4.637-22.5-4s.081 1.2.21 1.692c.564 2.134 2.703 2.677 4.047 2.698c2.704.042 8.565.11 18.243.11s15.54-.068 18.243-.11c1.344-.021 3.483-.564 4.046-2.698c.13-.491.211-1.055.211-1.692s-.081-1.2-.21-1.692c-.564-2.134-2.703-2.677-4.047-2.698M3.57-15.544c-.79.023-1.963.045-3.569.045s-2.778-.022-3.569-.045c-1.143-.034-2.357-.708-2.767-1.955h-1.478c-.857 0-1.613.432-2.01 1.12a75 75 0 0 0-3.976 7.937c3.226-.03 7.773-.057 13.8-.057s10.574.027 13.8.057a75 75 0 0 0-3.975-7.936C9.427-17.07 8.67-17.5 7.814-17.5h-1.478c-.41 1.247-1.624 1.921-2.767 1.955M-18.87 2.855l.057.44c.483 3.672 1.253 8.559 2.402 13.376a6.88 6.88 0 0 0 5.97 5.269c2.555.274 6.223.56 10.44.56s7.884-.286 10.44-.56a6.88 6.88 0 0 0 5.97-5.27c1.148-4.816 1.919-9.703 2.402-13.375l.057-.44q-.324.03-.586.034c-2.719.042-8.593.11-18.283.11s-15.564-.068-18.282-.11a8 8 0 0 1-.587-.033" clip-rule="evenodd"/>
    
    <!-- Líneas curvas a los lados (color fondo) -->
    <path d="M -13 9 Q -12.5 13 -11 17" stroke="#2e3a2c" stroke-width="3" fill="none" stroke-linecap="round"/>
    <path d="M 13 9 Q 12.5 13 11 17" stroke="#2e3a2c" stroke-width="3" fill="none" stroke-linecap="round"/>
    
    <!-- Círculo con check en el centro del carrito -->
    <circle cx="0" cy="13" r="8.5" fill="#2e3a2c" stroke="#dcfec2" stroke-width="1.5"/>
    <path d="M -3.7 13 L -1.1 16 L 4.2 10" stroke="#dcfec2" stroke-width="2" fill="none" stroke-linecap="round" stroke-linejoin="round"/>
  </g>
</svg>
