<?xml version="1.0" encoding="utf-8"?>
<!DOCTYPE svg PUBLIC "-//W3C//DTD SVG 1.0//EN" "http://www.w3.org/TR/2001/REC-SVG-20010904/DTD/svg10.dtd">
<svg version="1.0" xmlns="http://www.w3.org/2000/svg" width="96px" height="96px" viewBox="0 0 96 96" preserveAspectRatio="xMidYMid meet">
 <g fill="#009688">
  <path d="M 32.5 70.5 c -7.1 -2.5 -8.5 -6.1 -8.5 -22.5 0 -7.9 -0.5 -11 -3.1 -18.7 l -3.1 -9.3 -3.8 0 c -3.4 0 -3.8 -0.3 -4.4 -3.1 -0.9 -4.5 0 -5.2 5.7 -4.6 5.1 0.7 8.2 2.6 9.2 5.8 0.8 2.3 5.7 2.6 7.5 0.4 1.8 -2.2 38.2 -2.2 40 0 0.9 1.1 3.3 1.5 8.6 1.5 4.1 0 7.4 0.1 7.4 0.3 0 1.7 -15.4 33.5 -16.7 34.5 -1.2 0.8 -7 1.2 -20.6 1.2 l -18.8 0 0.3 3.8 0.3 3.7 20.8 0.3 20.7 0.2 0 4 0 4 -18.7 0 c -13.6 -0.1 -19.9 -0.5 -22.8 -1.5 z "/>
 </g>
 <g fill="#ff9800">
  <path d="M 38.2 12.3 l 7.8 -7.8 6 6 c 5.6 5.6 6 5.8 7.8 4.2 2.2 -2.1 3.2 -1.3 3.2 2.5 l 0 2.8 -16.2 0 -16.3 0 7.7 -7.7 z "/>
 </g>
 <g fill="#37474f">
  <path d="M43.1 78 C 43.1 80.9 40.8 83.2 38 83.2 35.1 83.2 32.8 80.9 32.8 78 32.8 75.2 35.1 72.9 38 72.9 40.8 72.9 43.1 75.2 43.1 78 Z M34.2 81.8 "/>
  <path d="M73.2 78 C 73.2 80.9 70.8 83.2 68 83.2 65.1 83.2 62.8 80.9 62.8 78 62.8 75.2 65.1 72.9 68 72.9 70.8 72.9 73.2 75.2 73.2 78 Z M64.2 81.8 "/>
 </g>
 <g fill="#f57c00">
  <path d="M 59.6 17.8 c -0.4 -1.6 0.2 -3 1.9 -4.8 l 2.5 -2.5 4.7 4.8 4.8 4.7 -6.6 0 c -6.1 0 -6.7 -0.2 -7.3 -2.2 z "/>
 </g>
 <g fill="#00695c">
  <path d="M 8.8 18.9 c -2.4 -1.4 -2.3 -4.6 0.3 -6 3 -1.5 5.4 0.9 4.5 4.5 -0.7 2.8 -2 3.2 -4.8 1.5 z "/>
 </g>
 <g fill="#607d8b">
  <path d="M 36.4 78.9 c -1 -1.7 1.3 -3.6 2.7 -2.2 1.2 1.2 0.4 3.3 -1.1 3.3 -0.5 0 -1.2 -0.5 -1.6 -1.1 z "/>
  <path d="M 66.4 78.9 c -1 -1.7 1.3 -3.6 2.7 -2.2 1.2 1.2 0.4 3.3 -1.1 3.3 -0.5 0 -1.2 -0.5 -1.6 -1.1 z "/>
 </g>
</svg>