<svg width="137" height="207" viewBox="0 0 137 207" fill="none" xmlns="http://www.w3.org/2000/svg">
<g clip-path="url(#clip0_3_8538)">
<path d="M78.5625 45.6773C76.3186 44.4001 73.8505 43.5655 71.292 43.2188C70.9046 42.4734 70.3656 41.8174 69.7095 41.2928C69.0029 40.731 68.1777 40.3373 67.2964 40.1416C66.4152 39.9459 65.5009 39.9533 64.623 40.1633C62.7464 40.6368 60.9264 41.3112 59.1945 42.1748C57.9649 41.5903 56.5916 41.377 55.2427 41.5611C53.8938 41.7452 52.6279 42.3187 51.6 43.2113C51.0495 43.6838 50.496 44.1773 49.95 44.6858C49.377 45.2243 48.7935 45.8363 48.2115 46.5008C47.4822 47.3346 46.9618 48.3298 46.6931 49.4044C46.4245 50.479 46.4153 51.602 46.6665 52.6808C46.7824 53.1901 46.9539 53.6851 47.178 54.1568C46.3085 55.9011 45.6286 57.7336 45.1499 59.6228C44.9391 60.5007 44.9312 61.4152 45.1269 62.2966C45.3226 63.178 45.7168 64.0032 46.2795 64.7093C46.8095 65.3723 47.4741 65.9152 48.2295 66.3023C48.577 68.8571 49.4111 71.3216 50.6865 73.5623C51.1813 74.4513 51.9483 75.1579 52.8748 75.5783C53.8012 75.9987 54.8381 76.1107 55.833 75.8978C56.862 75.694 57.7982 75.1646 58.5033 74.3877C59.2083 73.6109 59.6447 72.6278 59.748 71.5838C60.0279 69.6528 60.5355 67.7616 61.26 65.9498C61.26 65.9498 62.0775 65.4458 62.451 65.1413C63.3503 64.387 63.9886 63.3681 64.275 62.2298C64.9684 62.0002 65.5991 61.6125 66.117 61.0973C66.6214 60.5839 67.003 59.9629 67.233 59.2808C68.3673 58.993 69.3823 58.3554 70.134 57.4583C70.434 57.0848 70.944 56.2658 70.944 56.2658C72.7518 55.5219 74.6471 55.0113 76.584 54.7463C77.6279 54.643 78.611 54.2066 79.3878 53.5016C80.1647 52.7966 80.6941 51.8604 80.898 50.8313C81.1143 49.8353 81.004 48.7961 80.5833 47.8678C80.1626 46.9394 79.454 46.1713 78.5625 45.6773ZM56.7585 71.2493C56.7223 71.663 56.5525 72.0537 56.2745 72.3623C55.9965 72.6708 55.6257 72.8804 55.218 72.9593C54.8428 73.0447 54.45 73.0043 54.1 72.8444C53.7501 72.6845 53.4624 72.4139 53.2815 72.0743C52.3793 70.4944 51.7329 68.7818 51.366 66.9998H57.216C57.3795 66.9998 57.5385 66.9668 57.7005 66.9578C57.2715 68.2823 56.7585 71.2433 56.7585 71.2493ZM60.5535 62.8103C59.6117 63.5782 58.4341 63.9983 57.219 63.9998H51C50.5437 64.0008 50.0932 63.8977 49.6827 63.6983C49.2723 63.499 48.9128 63.2086 48.6315 62.8493C48.3509 62.4978 48.1541 62.0869 48.0561 61.6479C47.9581 61.2089 47.9615 60.7533 48.066 60.3158C48.3663 59.1048 48.7677 57.9212 49.266 56.7773C49.729 57.1397 50.236 57.4421 50.775 57.6773L60.7905 62.0633C60.8835 62.1068 60.9825 62.1233 61.077 62.1593C60.9427 62.4059 60.7654 62.6263 60.5535 62.8103ZM63.981 58.9823C63.7303 59.2365 63.4071 59.4067 63.0557 59.4695C62.7044 59.5324 62.3422 59.4848 62.019 59.3333L51.9795 54.9368C51.3809 54.6746 50.8531 54.2738 50.4398 53.7676C50.0264 53.2614 49.7393 52.6643 49.602 52.0253C49.4564 51.406 49.4601 50.7609 49.613 50.1433C49.7658 49.5257 50.0633 48.9533 50.481 48.4733C51 47.8823 51.513 47.3423 52.0155 46.8698C52.518 46.3973 53.0385 45.9323 53.556 45.4898C54.0335 45.0742 54.6024 44.777 55.2163 44.6224C55.8303 44.4677 56.472 44.46 57.0895 44.5998C57.707 44.7397 58.2829 45.0231 58.7703 45.4272C59.2577 45.8312 59.643 46.3445 59.895 46.9253L64.341 56.9603C64.4897 57.2948 64.5349 57.6661 64.4707 58.0265C64.4066 58.3869 64.236 58.7198 63.981 58.9823ZM69 52.2188C68.9989 53.4338 68.5794 54.6114 67.812 55.5533C67.6366 55.7564 67.4282 55.9283 67.1955 56.0618C67.1565 55.9568 67.128 55.8488 67.083 55.7453L62.6385 45.7118C62.4138 45.2024 62.1309 44.7207 61.7955 44.2763C62.9336 43.7793 64.1112 43.3779 65.316 43.0763C65.7534 42.9716 66.2091 42.9682 66.6481 43.0662C67.0871 43.1642 67.498 43.361 67.8495 43.6418C68.2095 43.9238 68.5004 44.2843 68.6998 44.6958C68.8992 45.1074 69.0018 45.559 69 46.0163V52.2188ZM77.9595 50.2178C77.8805 50.6255 77.6709 50.9964 77.3624 51.2744C77.0538 51.5523 76.6632 51.7222 76.2495 51.7583C76.2495 51.7583 73.2825 52.2713 71.958 52.7033C71.9685 52.5413 72 52.3823 72 52.2188V46.3688C73.7819 46.7357 75.4945 47.3822 77.0745 48.2843C77.4129 48.4657 77.6826 48.753 77.8424 49.1021C78.0022 49.4513 78.0433 49.8431 77.9595 50.2178Z" fill="#374957"/>
</g>
<g clip-path="url(#clip1_3_8538)">
<path d="M25.8388 162.483C27.0399 161.168 27.7771 159.496 27.9377 157.722C27.9843 157.357 27.9466 156.985 27.8275 156.636C27.7083 156.287 27.5109 155.97 27.2504 155.709C26.9899 155.448 26.6731 155.251 26.3244 155.131C25.9756 155.011 25.6041 154.973 25.2383 155.019C24.1382 155.106 23.0699 155.43 22.107 155.969C21.144 156.508 20.3094 157.249 19.6606 158.142C19.2499 157.114 18.669 156.162 17.9424 155.327C17.7169 155.104 17.4125 154.978 17.0951 154.977C16.7776 154.976 16.4725 155.101 16.2458 155.323C16.0191 155.545 15.889 155.848 15.8836 156.165C15.8782 156.482 15.9979 156.789 16.2169 157.019C17.4148 158.511 18.1158 160.34 18.2215 162.25H15.2708C12.4685 162.336 9.81437 163.528 7.88938 165.566C5.9644 167.605 4.92542 170.322 4.99993 173.125C4.80539 179.892 11.8198 186.142 17.9895 183.257C18.4607 182.957 19.0084 182.8 19.5668 182.804C20.1251 182.808 20.6704 182.973 21.1372 183.28C21.9261 183.736 22.818 183.984 23.7291 184C36.1314 183.657 37.7047 165.37 25.8388 162.483ZM22.1861 158.828C23.1233 158.008 24.3003 157.513 25.5416 157.417C25.4425 158.655 24.9482 159.83 24.1315 160.766C23.1934 161.585 22.0163 162.08 20.7747 162.178C20.8729 160.938 21.3678 159.764 22.1861 158.828ZM23.7291 181.583C23.1966 181.563 22.6786 181.404 22.2259 181.123C21.3965 180.644 20.4577 180.386 19.4999 180.375C18.5931 180.396 17.7057 180.642 16.9177 181.092C12.256 183.107 7.29576 178.129 7.4166 173.125C7.34208 170.963 8.12646 168.86 9.59824 167.275C11.07 165.69 13.1095 164.752 15.2708 164.667H23.7291C34.1208 165.055 34.1208 181.199 23.7291 181.583Z" fill="#374957"/>
</g>
<g clip-path="url(#clip2_3_8538)">
<path d="M24.9999 4.99999V11C24.9985 12.1522 24.5998 13.2687 23.8712 14.1612C23.1426 15.0538 22.1285 15.6679 20.9999 15.9V27C20.9999 27.2652 20.8946 27.5196 20.707 27.7071C20.5195 27.8946 20.2652 28 19.9999 28C19.7347 28 19.4804 27.8946 19.2928 27.7071C19.1053 27.5196 18.9999 27.2652 18.9999 27V15.9C17.8714 15.6679 16.8573 15.0538 16.1287 14.1612C15.4 13.2687 15.0014 12.1522 14.9999 11V4.99999C14.9999 4.73478 15.1053 4.48042 15.2928 4.29289C15.4804 4.10535 15.7347 3.99999 15.9999 3.99999C16.2652 3.99999 16.5195 4.10535 16.707 4.29289C16.8946 4.48042 16.9999 4.73478 16.9999 4.99999V11C17.0025 11.6183 17.196 12.2206 17.554 12.7247C17.912 13.2288 18.417 13.6099 18.9999 13.816V4.99999C18.9999 4.73478 19.1053 4.48042 19.2928 4.29289C19.4804 4.10535 19.7347 3.99999 19.9999 3.99999C20.2652 3.99999 20.5195 4.10535 20.707 4.29289C20.8946 4.48042 20.9999 4.73478 20.9999 4.99999V13.816C21.5828 13.6099 22.0878 13.2288 22.4459 12.7247C22.8039 12.2206 22.9974 11.6183 22.9999 11V4.99999C22.9999 4.73478 23.1053 4.48042 23.2928 4.29289C23.4804 4.10535 23.7347 3.99999 23.9999 3.99999C24.2652 3.99999 24.5195 4.10535 24.707 4.29289C24.8946 4.48042 24.9999 4.73478 24.9999 4.99999ZM34.9999 14C34.9552 15.9004 34.4824 17.7663 33.6167 19.4587C32.751 21.1512 31.5148 22.6265 29.9999 23.775V27C29.9999 27.2652 29.8946 27.5196 29.707 27.7071C29.5195 27.8946 29.2652 28 28.9999 28C28.7347 28 28.4804 27.8946 28.2928 27.7071C28.1053 27.5196 27.9999 27.2652 27.9999 27V5.99999C27.991 5.62426 28.0936 5.2543 28.295 4.93692C28.4963 4.61954 28.7872 4.369 29.1309 4.21699C29.5258 4.05636 29.9589 4.01422 30.3773 4.09574C30.7957 4.17725 31.1813 4.37888 31.4869 4.67599C33.8063 7.22095 35.0633 10.5573 34.9999 14ZM32.9999 14C33.0283 11.0721 31.9578 8.24007 29.9999 6.06299V21.07C31.874 19.1882 32.9488 16.6553 32.9999 14Z" fill="#374957"/>
</g>
<g clip-path="url(#clip3_3_8538)">
<path d="M108.2 15.8002C107.829 15.4262 107.358 15.1681 106.843 15.0574C106.328 14.9466 105.792 14.9879 105.3 15.1762L88.155 21.9292C87.0346 22.3723 86.113 23.2068 85.5613 24.2779C85.0096 25.3489 84.8652 26.5838 85.155 27.7532C85.882 30.407 87.2872 32.8259 89.2323 34.7721C91.1774 36.7183 93.5956 38.1248 96.2489 38.8532C97.4196 39.1412 98.6549 38.9949 99.726 38.4417C100.797 37.8884 101.631 36.9656 102.074 35.8442L108.832 18.6722C109.014 18.1835 109.051 17.6525 108.939 17.1431C108.827 16.6336 108.571 16.1673 108.2 15.8002ZM96.7459 36.9112C94.437 36.2776 92.3326 35.054 90.6397 33.3609C88.9467 31.6677 87.7234 29.5633 87.09 27.2542C86.9439 26.6585 86.9872 26.0319 87.214 25.462C87.4407 24.892 87.8396 24.4069 88.355 24.0742C88.4583 27.1099 89.7103 29.9932 91.8578 32.1413C94.0053 34.2894 96.8883 35.5421 99.9239 35.6462C99.5916 36.1615 99.1069 36.5602 98.5373 36.787C97.9676 37.0137 97.3414 37.0572 96.7459 36.9112ZM100.773 33.6842C94.582 33.5842 90.418 29.4192 90.317 23.2272L106.01 17.0472C106.141 16.997 106.284 16.9863 106.421 17.0166C106.558 17.0468 106.683 17.1166 106.781 17.2172C106.881 17.3105 106.951 17.4309 106.983 17.5637C107.015 17.6964 107.008 17.8356 106.962 17.9642L106.3 19.6452C100.542 17.6652 97.3579 25.8542 102.887 28.3132L100.773 33.6842ZM103.62 26.4522C102.993 26.1757 102.497 25.6673 102.236 25.0334C101.975 24.3995 101.97 23.6893 102.221 23.0515C102.472 22.4137 102.96 21.8978 103.583 21.6118C104.206 21.3258 104.916 21.2919 105.563 21.5172L103.62 26.4522Z" fill="#374957"/>
<path d="M96 24C95.4696 24 94.9609 24.2107 94.5858 24.5858C94.2107 24.9609 94 25.4696 94 26C94 26.5304 94.2107 27.0391 94.5858 27.4142C94.9609 27.7893 95.4696 28 96 28C96.5304 28 97.0391 27.7893 97.4142 27.4142C97.7893 27.0391 98 26.5304 98 26C98 25.4696 97.7893 24.9609 97.4142 24.5858C97.0391 24.2107 96.5304 24 96 24Z" fill="#374957"/>
</g>
<g clip-path="url(#clip4_3_8538)">
<path d="M23.9582 63.4167H21.2645L23.653 60.9326C23.8428 60.7283 23.9478 60.4546 23.9454 60.1706C23.943 59.8865 23.8335 59.6148 23.6403 59.4139C23.4472 59.2131 23.1859 59.0991 22.9128 59.0967C22.6397 59.0942 22.3766 59.2034 22.1801 59.4007L19.7916 61.8848V59.0833C19.7916 58.796 19.6818 58.5205 19.4865 58.3173C19.2911 58.1141 19.0262 58 18.7499 58C18.4736 58 18.2087 58.1141 18.0133 58.3173C17.818 58.5205 17.7082 58.796 17.7082 59.0833V63.9107C16.8556 62.9667 15.8491 62.1869 14.7353 61.6075C13.9533 61.2488 13.08 61.1655 12.2483 61.3705C11.4167 61.5754 10.6721 62.0573 10.128 62.7428C8.29677 64.6473 3.1926 74.3811 0.312395 80.0122C0.0592595 80.5246 -0.0309485 81.1073 0.0547679 81.6764C0.140484 82.2455 0.3977 82.7716 0.789356 83.179C1.18101 83.5863 1.68689 83.8538 2.2341 83.9429C2.78131 84.0321 3.34161 83.9383 3.83427 83.675C9.25094 80.6807 18.6082 75.3712 20.4395 73.4667C21.0984 72.901 21.5617 72.1269 21.759 71.2622C21.9562 70.3976 21.8766 69.4895 21.5322 68.6762C20.9743 67.5178 20.2243 66.4707 19.3166 65.5833H23.9582C24.2345 65.5833 24.4994 65.4692 24.6948 65.266C24.8901 65.0629 24.9999 64.7873 24.9999 64.5C24.9999 64.2127 24.8901 63.9371 24.6948 63.734C24.4994 63.5308 24.2345 63.4167 23.9582 63.4167ZM18.9666 71.9349C18.2218 72.5976 17.4226 73.191 16.578 73.7083L14.278 71.3174C14.0816 71.1201 13.8184 71.0109 13.5453 71.0133C13.2722 71.0158 13.0109 71.1297 12.8178 71.3306C12.6247 71.5315 12.5151 71.8032 12.5127 72.0872C12.5104 72.3713 12.6154 72.6449 12.8051 72.8492L14.753 74.874C11.8926 76.6539 7.78531 79.0362 2.85615 81.7618C2.75769 81.8161 2.64507 81.8362 2.53485 81.819C2.42463 81.8018 2.32262 81.7483 2.24381 81.6663C2.165 81.5844 2.11355 81.4783 2.09702 81.3636C2.08049 81.249 2.09975 81.1319 2.15198 81.0295C3.7374 77.9301 5.19677 75.1535 6.48531 72.7767L8.63844 75.0159C8.8349 75.2132 9.09802 75.3224 9.37115 75.32C9.64427 75.3175 9.90553 75.2036 10.0987 75.0027C10.2918 74.8019 10.4013 74.5301 10.4037 74.2461C10.4061 73.962 10.3011 73.6884 10.1114 73.4841L7.55302 70.8234C8.68844 68.777 9.6426 67.1401 10.3749 65.9885L12.8051 68.5159C13.0016 68.7132 13.2647 68.8224 13.5378 68.82C13.8109 68.8175 14.0722 68.7036 14.2653 68.5027C14.4585 68.3019 14.568 68.0301 14.5704 67.7461C14.5728 67.462 14.4678 67.1884 14.278 66.9841L11.6395 64.24C12.5218 63.3852 13.0624 63.2412 13.9134 63.5987C15.0948 64.2998 16.154 65.2029 17.0468 66.2702C18.0733 67.1989 18.9421 68.3009 19.6166 69.5299C19.8759 70.1582 19.977 70.8852 18.9666 71.9349Z" fill="#374957"/>
</g>
<g clip-path="url(#clip5_3_8538)">
<path d="M33.6788 110.408C32.8945 108.566 31.664 106.949 30.0984 105.702C28.5327 104.455 26.6812 103.617 24.7108 103.264C24.9247 102.808 25.0199 102.305 24.9877 101.802C24.9555 101.299 24.7968 100.813 24.5265 100.387C24.2562 99.962 23.8829 99.6118 23.4412 99.3693C22.9995 99.1267 22.5037 98.9995 21.9998 98.9995C21.4959 98.9995 21.0001 99.1267 20.5585 99.3693C20.1168 99.6118 19.7435 99.962 19.4731 100.387C19.2028 100.813 19.0442 101.299 19.0119 101.802C18.9797 102.305 19.075 102.808 19.2888 103.264C17.319 103.617 15.4682 104.455 13.9031 105.703C12.338 106.95 11.1079 108.567 10.3238 110.408C10.063 111.023 9.95879 111.693 10.0204 112.358C10.082 113.023 10.3075 113.663 10.6768 114.219C11.0333 114.754 11.5136 115.194 12.0768 115.503L12.6768 118.875C12.881 120.032 13.4866 121.08 14.387 121.834C15.2875 122.589 16.4251 123.002 17.5998 123H26.3998C27.5745 123.002 28.7121 122.589 29.6124 121.834C30.5127 121.08 31.118 120.032 31.3218 118.875L31.9218 115.504C32.4854 115.196 32.9658 114.755 33.3218 114.22C33.6917 113.664 33.9179 113.024 33.9802 112.359C34.0425 111.694 33.9389 111.024 33.6788 110.408ZM21.9998 101C22.265 101 22.5194 101.105 22.7069 101.293C22.8945 101.481 22.9998 101.735 22.9998 102C22.9998 102.265 22.8945 102.52 22.7069 102.707C22.5194 102.895 22.265 103 21.9998 103C21.7346 103 21.4802 102.895 21.2927 102.707C21.1052 102.52 20.9998 102.265 20.9998 102C20.9998 101.735 21.1052 101.481 21.2927 101.293C21.4802 101.105 21.7346 101 21.9998 101ZM29.3568 118.525C29.2334 119.219 28.8694 119.848 28.3286 120.301C27.7879 120.753 27.105 121.001 26.3998 121H17.5998C16.8952 121 16.213 120.752 15.6729 120.3C15.1327 119.847 14.7691 119.219 14.6458 118.525L14.2748 116.445C14.8299 116.834 15.5002 117.023 16.1766 116.982C16.853 116.941 17.4956 116.673 17.9998 116.22C18.5488 116.714 19.2613 116.987 19.9998 116.987C20.7384 116.987 21.4508 116.714 21.9998 116.22C22.5488 116.714 23.2613 116.987 23.9998 116.987C24.7384 116.987 25.4508 116.714 25.9998 116.22C26.5043 116.674 27.1475 116.943 27.8245 116.983C28.5016 117.024 29.1725 116.835 29.7278 116.445L29.3568 118.525ZM31.6568 113.112C31.4774 113.387 31.2316 113.613 30.942 113.768C30.6524 113.923 30.3284 114.003 29.9998 114C29.7635 114.01 29.5322 114.072 29.3216 114.179C29.1111 114.287 28.9263 114.439 28.7798 114.625C28.6851 114.74 28.566 114.833 28.4311 114.897C28.2963 114.96 28.149 114.993 27.9998 114.993C27.8507 114.993 27.7034 114.96 27.5685 114.897C27.4337 114.833 27.3146 114.74 27.2198 114.625C27.0773 114.436 26.8929 114.283 26.6812 114.178C26.4695 114.073 26.2363 114.018 25.9998 114.018C25.7633 114.018 25.5301 114.073 25.3184 114.178C25.1067 114.283 24.9224 114.436 24.7798 114.625C24.6851 114.74 24.566 114.833 24.4311 114.897C24.2963 114.96 24.149 114.993 23.9998 114.993C23.8507 114.993 23.7034 114.96 23.5685 114.897C23.4337 114.833 23.3146 114.74 23.2198 114.625C23.0773 114.436 22.8929 114.283 22.6812 114.178C22.4695 114.073 22.2363 114.018 21.9998 114.018C21.7633 114.018 21.5301 114.073 21.3184 114.178C21.1067 114.283 20.9224 114.436 20.7798 114.625C20.6851 114.74 20.566 114.833 20.4311 114.897C20.2963 114.96 20.149 114.993 19.9998 114.993C19.8507 114.993 19.7034 114.96 19.5685 114.897C19.4337 114.833 19.3146 114.74 19.2198 114.625C19.0773 114.436 18.8929 114.283 18.6812 114.178C18.4695 114.073 18.2363 114.018 17.9998 114.018C17.7633 114.018 17.5301 114.073 17.3184 114.178C17.1067 114.283 16.9224 114.436 16.7798 114.625C16.6851 114.74 16.566 114.833 16.4311 114.897C16.2963 114.96 16.149 114.993 15.9998 114.993C15.8507 114.993 15.7034 114.96 15.5685 114.897C15.4337 114.833 15.3146 114.74 15.2198 114.625C15.0735 114.439 14.8887 114.287 14.6781 114.179C14.4676 114.071 14.2362 114.01 13.9998 114C13.6714 114.003 13.3476 113.923 13.0581 113.768C12.7687 113.613 12.523 113.387 12.3438 113.112C12.1549 112.831 12.0397 112.508 12.0087 112.171C11.9778 111.834 12.0322 111.495 12.1668 111.184C15.4338 102.984 28.5668 102.984 31.8348 111.184C31.9695 111.495 32.0238 111.834 31.9929 112.171C31.962 112.508 31.8467 112.831 31.6578 113.112H31.6568Z" fill="#374957"/>
</g>
<path d="M103.958 102.708H91.0417C89.3295 102.706 87.688 102.025 86.4773 100.814C85.2665 99.6036 84.5854 97.9621 84.5834 96.2499V86.4926C84.573 86.2968 84.5229 86.1051 84.4361 85.9292C84.3492 85.7533 84.2275 85.597 84.0783 85.4696C83.2935 84.7465 82.7005 83.8398 82.3527 82.831C82.0048 81.8221 81.9129 80.7426 82.0853 79.6894C82.6226 76.3582 85.6813 74.2916 90.0626 74.2916H106.345C107.9 74.2759 109.411 74.8084 110.612 75.7955C111.813 76.7825 112.629 78.1612 112.915 79.6894C113.087 80.7435 112.995 81.8239 112.646 82.8336C112.298 83.8432 111.704 84.7504 110.918 85.4735C110.77 85.6006 110.649 85.7564 110.563 85.9316C110.476 86.1068 110.427 86.2977 110.417 86.4926V96.2499C110.415 97.9621 109.734 99.6036 108.523 100.814C107.312 102.025 105.671 102.706 103.958 102.708ZM90.0626 76.8749C86.9445 76.8749 84.967 78.0516 84.6376 80.1041C84.5289 80.7359 84.5812 81.3849 84.7898 81.9911C84.9984 82.5973 85.3566 83.1411 85.8311 83.5722C86.245 83.939 86.5776 84.3883 86.8076 84.8913C87.0376 85.3942 87.1599 85.9397 87.1667 86.4926V96.2499C87.1667 97.2776 87.575 98.2632 88.3017 98.9899C89.0284 99.7166 90.014 100.125 91.0417 100.125H103.958C104.986 100.125 105.972 99.7166 106.698 98.9899C107.425 98.2632 107.833 97.2776 107.833 96.2499V86.4926C107.839 85.9395 107.961 85.3938 108.191 84.8907C108.421 84.3877 108.754 83.9385 109.169 83.5722C109.644 83.1412 110.002 82.5974 110.211 81.9912C110.42 81.385 110.472 80.736 110.364 80.1041C110.18 79.1795 109.677 78.3491 108.942 77.7587C108.207 77.1682 107.288 76.8553 106.345 76.8749H90.0626ZM92.3334 88.4999C91.9908 88.4999 91.6623 88.636 91.42 88.8782C91.1778 89.1205 91.0417 89.449 91.0417 89.7916C91.0417 90.1341 91.1778 90.4627 91.42 90.7049C91.6623 90.9471 91.9908 91.0832 92.3334 91.0832C92.676 91.0832 93.0045 90.9471 93.2467 90.7049C93.489 90.4627 93.625 90.1341 93.625 89.7916C93.625 89.449 93.489 89.1205 93.2467 88.8782C93.0045 88.636 92.676 88.4999 92.3334 88.4999ZM97.5001 93.6666C97.1575 93.6666 96.8289 93.8026 96.5867 94.0449C96.3445 94.2871 96.2084 94.6157 96.2084 94.9582C96.2084 95.3008 96.3445 95.6293 96.5867 95.8716C96.8289 96.1138 97.1575 96.2499 97.5001 96.2499C97.8426 96.2499 98.1712 96.1138 98.4134 95.8716C98.6556 95.6293 98.7917 95.3008 98.7917 94.9582C98.7917 94.6157 98.6556 94.2871 98.4134 94.0449C98.1712 93.8026 97.8426 93.6666 97.5001 93.6666ZM92.3334 93.6666C91.9908 93.6666 91.6623 93.8026 91.42 94.0449C91.1778 94.2871 91.0417 94.6157 91.0417 94.9582C91.0417 95.3008 91.1778 95.6293 91.42 95.8716C91.6623 96.1138 91.9908 96.2499 92.3334 96.2499C92.676 96.2499 93.0045 96.1138 93.2467 95.8716C93.489 95.6293 93.625 95.3008 93.625 94.9582C93.625 94.6157 93.489 94.2871 93.2467 94.0449C93.0045 93.8026 92.676 93.6666 92.3334 93.6666Z" fill="#374957"/>
<g clip-path="url(#clip6_3_8538)">
<path d="M55 148.333C55 148.687 54.8595 149.026 54.6095 149.276C54.3594 149.526 54.0203 149.667 53.6667 149.667C53.313 149.667 52.9739 149.526 52.7239 149.276C52.4738 149.026 52.3333 148.687 52.3333 148.333C52.3333 147.98 52.4738 147.641 52.7239 147.39C52.9739 147.14 53.313 147 53.6667 147C54.0203 147 54.3594 147.14 54.6095 147.39C54.8595 147.641 55 147.98 55 148.333ZM78.64 133.167C78.3647 133.719 77.9403 134.184 77.4149 134.508C76.8895 134.832 76.2839 135.002 75.6667 135H69.6413C69.6147 136.415 69.5573 137.761 69.4427 139H69.9333C70.4701 138.989 71.0027 139.097 71.4934 139.315C71.984 139.533 72.4207 139.856 72.7725 140.262C73.1242 140.667 73.3825 141.145 73.529 141.662C73.6755 142.178 73.7065 142.721 73.62 143.251C73.4682 144.288 72.9494 145.237 72.1577 145.925C71.3661 146.613 70.3541 146.994 69.3053 147H67.5333C65.1333 152.185 57.6667 155 52.316 155C51.5883 154.997 50.8688 154.846 50.2018 154.555C49.5348 154.264 48.9344 153.84 48.4375 153.308C47.9407 152.776 47.5579 152.149 47.3127 151.463C47.0676 150.778 46.9652 150.05 47.012 149.324C47.0831 145.78 47.9928 142.302 49.6667 139.177V138.467C49.6752 136.069 50.5218 133.75 52.06 131.91C53.5981 130.071 55.731 128.827 58.0893 128.395C58.6864 128.293 59.2986 128.323 59.883 128.482C60.4673 128.642 61.0097 128.927 61.472 129.319C61.9453 129.716 62.3269 130.212 62.5906 130.771C62.8544 131.33 62.994 131.939 63 132.557C64.24 132.443 65.588 132.385 67 132.359V126.333C67 125.714 67.1724 125.107 67.4978 124.581C67.8233 124.054 68.2889 123.629 68.8426 123.352C69.3963 123.075 70.0161 122.958 70.6327 123.013C71.2492 123.069 71.8381 123.295 72.3333 123.667C73.5292 124.537 74.3916 125.79 74.7773 127.217C76.2078 127.603 77.4628 128.468 78.3333 129.667C78.7053 130.164 78.931 130.755 78.9852 131.373C79.0394 131.991 78.9198 132.613 78.64 133.167ZM52.8467 135.721C55.0941 134.223 57.6555 133.261 60.3333 132.909V132.6C60.3333 132.363 60.2814 132.129 60.1812 131.914C60.081 131.699 59.935 131.508 59.7533 131.356C59.5911 131.214 59.3992 131.11 59.1915 131.051C58.9839 130.993 58.7658 130.982 58.5533 131.019C57.2764 131.241 56.0792 131.792 55.0789 132.616C54.0786 133.441 53.3094 134.51 52.8467 135.721ZM58.7107 151.267C58.2532 149.328 57.2644 147.555 55.8553 146.147C54.4461 144.739 52.6725 143.752 50.7333 143.296C50.1343 145.317 49.7762 147.402 49.6667 149.507C49.6433 149.884 49.7003 150.262 49.8341 150.615C49.9679 150.969 50.1753 151.29 50.4426 151.557C50.7099 151.825 51.031 152.032 51.3845 152.166C51.7381 152.3 52.116 152.357 52.4933 152.333C54.6006 152.225 56.6876 151.867 58.7107 151.267ZM66.9893 135.011C58.6707 135.153 54.1373 136.696 51.7893 140.827C54.0346 141.44 56.0811 142.629 57.7271 144.275C59.3732 145.92 60.5618 147.967 61.176 150.212C65.304 147.861 66.8467 143.329 66.9893 135.011ZM69.0907 141.667C68.9417 142.566 68.7436 143.456 68.4973 144.333H69.3053C69.7137 144.331 70.1078 144.183 70.4162 143.915C70.7247 143.648 70.9271 143.279 70.9867 142.875C71.0183 142.723 71.0144 142.565 70.9751 142.415C70.9358 142.265 70.8622 142.126 70.7602 142.009C70.6582 141.892 70.5304 141.8 70.3869 141.741C70.2435 141.681 70.0882 141.656 69.9333 141.667H69.0907ZM76.2 131.252C75.8764 130.811 75.4655 130.442 74.993 130.166C74.5205 129.891 73.9964 129.716 73.4533 129.652C73.1796 129.606 72.9271 129.476 72.7309 129.28C72.5346 129.084 72.4045 128.831 72.3587 128.557C72.2948 128.014 72.1197 127.49 71.8445 127.017C71.5692 126.545 71.1996 126.134 70.7587 125.811C70.658 125.732 70.5371 125.685 70.4102 125.673C70.2833 125.662 70.1558 125.687 70.0427 125.745C69.9295 125.796 69.8336 125.879 69.7668 125.983C69.7 126.088 69.6652 126.209 69.6667 126.333V132.333H75.6667C75.7902 132.337 75.9122 132.304 76.0175 132.24C76.1229 132.175 76.2072 132.081 76.26 131.969C76.3197 131.857 76.3458 131.729 76.3351 131.602C76.3245 131.475 76.2776 131.353 76.2 131.252Z" fill="#374957"/>
</g>
<g clip-path="url(#clip7_3_8538)">
<path d="M136.437 125.174C136.034 124.516 135.441 123.967 134.719 123.585C133.997 123.202 133.173 123 132.333 123H113.667C112.827 123 112.003 123.202 111.281 123.585C110.559 123.967 109.966 124.516 109.564 125.174C109.158 125.821 108.957 126.556 108.985 127.297C109.012 128.039 109.265 128.76 109.718 129.382C111.085 131.153 112.887 132.621 114.987 133.675C117.087 134.729 119.429 135.341 121.833 135.464V145.917H117.167C116.857 145.917 116.561 146.026 116.342 146.222C116.123 146.417 116 146.682 116 146.958C116 147.235 116.123 147.5 116.342 147.695C116.561 147.89 116.857 148 117.167 148H128.833C129.143 148 129.44 147.89 129.658 147.695C129.877 147.5 130 147.235 130 146.958C130 146.682 129.877 146.417 129.658 146.222C129.44 146.026 129.143 145.917 128.833 145.917H124.167V135.464C126.572 135.341 128.913 134.729 131.013 133.675C133.113 132.621 134.915 131.153 136.283 129.382C136.735 128.76 136.988 128.039 137.015 127.297C137.043 126.556 136.842 125.821 136.437 125.174ZM113.667 125.083H132.333C132.952 125.083 133.546 125.303 133.983 125.694C134.421 126.084 134.667 126.614 134.667 127.167H111.333C111.333 126.614 111.579 126.084 112.017 125.694C112.454 125.303 113.048 125.083 113.667 125.083ZM123 133.417C121.022 133.423 119.064 133.055 117.256 132.337C115.449 131.618 113.832 130.566 112.513 129.25H133.487C132.168 130.567 130.552 131.619 128.744 132.337C126.936 133.055 124.979 133.423 123 133.417Z" fill="#374957"/>
</g>
<g clip-path="url(#clip8_3_8538)">
<path d="M97.875 174.25H93.75C93.75 171.797 92.8808 169.444 91.3336 167.709C89.7865 165.975 87.688 165 85.5 165C83.312 165 81.2135 165.975 79.6664 167.709C78.1192 169.444 77.25 171.797 77.25 174.25H73.125C72.031 174.25 70.9818 174.737 70.2082 175.605C69.4346 176.472 69 177.648 69 178.875V194.292C69.0022 196.335 69.7272 198.295 71.0161 199.74C72.3049 201.185 74.0523 201.998 75.875 202H95.125C96.9477 201.998 98.6951 201.185 99.9839 199.74C101.273 198.295 101.998 196.335 102 194.292V178.875C102 177.648 101.565 176.472 100.792 175.605C100.018 174.737 98.969 174.25 97.875 174.25ZM85.5 168.083C86.9587 168.083 88.3576 168.733 89.3891 169.89C90.4205 171.046 91 172.614 91 174.25H80C80 172.614 80.5795 171.046 81.6109 169.89C82.6424 168.733 84.0413 168.083 85.5 168.083ZM99.25 194.292C99.25 195.518 98.8154 196.695 98.0418 197.562C97.2682 198.429 96.219 198.917 95.125 198.917H75.875C74.781 198.917 73.7318 198.429 72.9582 197.562C72.1846 196.695 71.75 195.518 71.75 194.292V178.875C71.75 178.466 71.8949 178.074 72.1527 177.785C72.4106 177.496 72.7603 177.333 73.125 177.333H77.25V180.417C77.25 180.826 77.3949 181.218 77.6527 181.507C77.9106 181.796 78.2603 181.958 78.625 181.958C78.9897 181.958 79.3394 181.796 79.5973 181.507C79.8551 181.218 80 180.826 80 180.417V177.333H91V180.417C91 180.826 91.1449 181.218 91.4027 181.507C91.6606 181.796 92.0103 181.958 92.375 181.958C92.7397 181.958 93.0894 181.796 93.3473 181.507C93.6051 181.218 93.75 180.826 93.75 180.417V177.333H97.875C98.2397 177.333 98.5894 177.496 98.8473 177.785C99.1051 178.074 99.25 178.466 99.25 178.875V194.292Z" fill="#374957"/>
</g>
<defs>
<clipPath id="clip0_3_8538">
<rect width="36" height="36" fill="white" transform="translate(45 40)"/>
</clipPath>
<clipPath id="clip1_3_8538">
<rect width="29" height="29" fill="white" transform="translate(5 155)"/>
</clipPath>
<clipPath id="clip2_3_8538">
<rect width="24" height="24" fill="white" transform="translate(13 4)"/>
</clipPath>
<clipPath id="clip3_3_8538">
<rect width="24" height="24" fill="white" transform="translate(85 15)"/>
</clipPath>
<clipPath id="clip4_3_8538">
<rect width="25" height="26" fill="white" transform="translate(0 58)"/>
</clipPath>
<clipPath id="clip5_3_8538">
<rect width="24" height="24" fill="white" transform="translate(10 99)"/>
</clipPath>
<clipPath id="clip6_3_8538">
<rect width="32" height="32" fill="white" transform="translate(47 123)"/>
</clipPath>
<clipPath id="clip7_3_8538">
<rect width="28" height="25" fill="white" transform="translate(109 123)"/>
</clipPath>
<clipPath id="clip8_3_8538">
<rect width="33" height="37" fill="white" transform="translate(69 165)"/>
</clipPath>
</defs>
</svg>
